<?xml version="1.0" encoding="UTF-8" standalone="no"?>
<!-- Created with Inkscape (http://www.inkscape.org/) -->

<svg
   version="1.1"
   id="svg18"
   width="290"
   height="174"
   viewBox="0 0 290 174"
   sodipodi:docname="ach.svg"
   inkscape:version="1.2.2 (732a01da63, 2022-12-09, custom)"
   inkscape:export-filename="achiever.png"
   inkscape:export-xdpi="96"
   inkscape:export-ydpi="96"
   xmlns:inkscape="http://www.inkscape.org/namespaces/inkscape"
   xmlns:sodipodi="http://sodipodi.sourceforge.net/DTD/sodipodi-0.dtd"
   xmlns="http://www.w3.org/2000/svg"
   xmlns:svg="http://www.w3.org/2000/svg">
  <defs
     id="defs22" />
  <sodipodi:namedview
     id="namedview20"
     pagecolor="#ffffff"
     bordercolor="#000000"
     borderopacity="0.25"
     inkscape:showpageshadow="2"
     inkscape:pageopacity="0.0"
     inkscape:pagecheckerboard="0"
     inkscape:deskcolor="#d1d1d1"
     showgrid="false"
     inkscape:zoom="2.2224138"
     inkscape:cx="141.06284"
     inkscape:cy="131.61365"
     inkscape:window-width="1862"
     inkscape:window-height="1016"
     inkscape:window-x="0"
     inkscape:window-y="0"
     inkscape:window-maximized="1"
     inkscape:current-layer="g24" />
  <g
     inkscape:groupmode="layer"
     inkscape:label="Image"
     id="g24"
     style="display:inline">
    <path
       style="opacity:0.9;fill:#d6a206;stroke:#0000ff;stroke-width:0.017478;stroke-linecap:round;stroke-linejoin:bevel"
       d="m 182.21616,147.32125 c 2.73224,-1.75924 4.93927,-3.38086 4.90453,-3.60361 -0.0348,-0.22275 -0.2027,-1.06306 -0.37323,-1.86737 -0.29572,-1.39481 -0.24742,-1.46237 1.04527,-1.46237 0.90728,0 1.42779,-0.26031 1.57457,-0.78743 1.02933,-3.69684 1.78434,-7.31876 1.57025,-7.53285 -0.14312,-0.14311 -1.14199,-0.0621 -2.21973,0.18007 -1.07773,0.24215 -2.01704,0.38275 -2.08735,0.31244 -0.0703,-0.0703 0.47704,-0.96283 1.21632,-1.98338 1.5773,-2.1774 3.4054,-3.23773 5.58215,-3.23773 3.29203,0 6.05821,4.42248 5.55556,8.88204 -0.11885,1.05437 -0.11374,1.91703 0.0113,1.91703 0.57886,0 5.06156,-2.81289 5.06156,-3.17613 0,-0.99523 -4.73882,-10.8598 -4.87563,-10.14937 -0.0948,0.49203 -0.40767,0.69481 -0.82504,0.53465 -0.36982,-0.14192 -0.98314,-0.25802 -1.36295,-0.25802 -0.58334,0 -0.64219,-0.4716 -0.37905,-3.03724 0.54175,-5.28206 0.38239,-5.06207 3.66678,-5.06207 h 2.87597 l 0.002,-2.58727 c 0.003,-4.66016 2.91487,-7.44403 6.71571,-6.42058 2.06449,0.55592 4.63081,3.20686 5.4203,5.59903 0.81084,2.45685 1.77025,1.92726 2.97362,-1.64139 l 1.02017,-3.02539 -3.45364,-4.4958 -3.45362,-4.495804 -2.10466,-0.01566 c -1.74984,-0.013 -2.26891,-0.224265 -3.07894,-1.253052 l -0.97429,-1.237393 5.8912,-0.125553 c 3.24017,-0.06905 5.89121,-0.294288 5.89121,-0.500523 0,-0.206235 -1.50349,-2.007731 -3.34108,-4.003332 -4.1181,-4.472191 -4.54474,-5.193965 -3.61797,-6.120737 0.37869,-0.378683 1.3907,-0.797709 2.24892,-0.931172 0.85822,-0.133459 2.26909,-0.353071 3.13526,-0.488023 2.08103,-0.324233 2.02439,-1.341807 -0.11249,-2.021001 -2.51563,-0.799577 -5.78457,-3.004639 -7.31053,-4.931319 -0.74317,-0.938331 -1.35122,-1.81216 -1.35122,-1.941843 0,-0.129679 1.92358,-0.673988 4.27463,-1.209577 4.20041,-0.956887 4.27463,-0.996597 4.27463,-2.286743 0,-1.140437 -0.16683,-1.312947 -1.26973,-1.312947 -2.10612,0 -5.2641,-1.304006 -7.22707,-2.984232 -2.78858,-2.38692 -2.80417,-2.366947 2.78069,-3.563298 1.92945,-0.413314 3.44773,-0.932549 3.37396,-1.153856 -0.0738,-0.221306 -2.53374,-2.000579 -5.46661,-3.953939 -6.12956,-4.082435 -6.25233,-3.829135 2.10248,-4.337737 3.7767,-0.229907 4.8164,-0.430278 4.63848,-0.893923 -0.12612,-0.328678 -0.36091,-1.299053 -0.52175,-2.156391 -0.28886,-1.539786 -0.32623,-1.56202 -3.06362,-1.823089 -1.52415,-0.145361 -5.35284,-0.396874 -8.50819,-0.558919 -5.1928,-0.266678 -5.73701,-0.374212 -5.73701,-1.133612 0,-0.461443 0.10459,-0.838987 0.23242,-0.838987 0.12784,0 2.81073,-0.419492 5.96199,-0.932204 3.15126,-0.512712 6.38763,-0.937925 7.19194,-0.944919 1.65262,-0.01437 1.63682,0.03506 0.97512,-3.050302 -0.48494,-2.261202 -0.49561,-2.271954 -2.25545,-2.271954 h -1.7682 l 1.16303,1.842357 c 1.4653,2.321193 1.17193,2.754032 -0.43695,0.644677 l -1.21055,-1.587111 h -6.27656 c -6.04478,0 -6.27656,0.03435 -6.27656,0.930244 0,0.715371 -0.20787,0.871273 -0.89992,0.674942 l -1.79984,-0.510605 c -0.61774,-0.175249 -0.89993,-0.640378 -0.89993,-1.483357 0,-1.224442 0.0169,-1.2308 5.73701,-2.160953 3.15535,-0.513093 5.8045,-0.756754 5.88699,-0.541468 0.18312,0.477893 1.43358,0.525983 1.40305,0.05396 -0.012,-0.185609 -0.73042,-1.653607 -1.59646,-3.262218 -1.44167,-2.67778 -1.58853,-2.606169 -0.79198,0.386167 0.24936,0.936748 -0.15512,0.768143 -3.45124,-1.438626 l -3.7337,-2.499735 -2.76409,0.258114 c -3.25829,0.304264 -4.53372,-0.222068 -7.19284,-2.968291 l -1.77868,-1.836931 4.70343,0.031 c 7.29505,0.04808 20.16124,0.653099 20.47076,0.962613 0.153,0.153004 -0.0554,0.787316 -0.46313,1.409583 -0.7096,1.082991 -0.67608,1.281969 0.78364,4.651142 1.6327,3.768429 1.6337,3.769074 4.89636,3.139173 1.88127,-0.363206 1.65632,-0.839148 2.86619,6.064174 l 0.75952,4.333712 1.80055,0.241505 c 4.14162,0.555508 5.45933,4.672639 3.28936,10.277496 -0.24446,0.631415 0.22777,0.783472 3.26929,1.052709 1.95526,0.17308 3.76069,0.44842 4.01205,0.611866 0.28573,0.185783 -0.25688,2.236795 -1.44758,5.47173 l -1.90463,5.174554 3.08118,0.131897 c 3.07024,0.13143 3.08049,0.136216 2.89257,1.349883 -0.10373,0.669894 -0.3079,2.116708 -0.45371,3.21514 -0.48369,3.643682 -3.06072,6.801897 -6.42023,7.868165 -0.55358,0.175697 -1.00651,0.631026 -1.00651,1.011842 0,0.595285 0.58371,0.649622 4.16214,0.387461 2.28918,-0.167709 4.51649,-0.405329 4.94958,-0.528052 1.05331,-0.298464 1.0239,0.776975 -0.12278,4.489475 -1.12318,3.636447 -3.74833,6.467373 -7.40127,7.98143 -3.36357,1.394123 -3.3875,2.446515 -0.0634,2.789588 4.93494,0.509329 6.47411,2.261219 5.82071,6.625129 l -0.37055,2.47478 -6.07448,3.14973 -6.07447,3.14973 5.52901,0.22498 5.52901,0.22498 -1.34523,2.11882 c -1.74585,2.74981 -3.92931,4.29068 -9.10136,6.42278 -2.31611,0.95478 -5.02105,2.25134 -6.01097,2.88124 l -1.79984,1.14527 2.90652,0.3735 c 5.55365,0.71366 6.77273,2.32279 3.84888,5.08034 -1.7404,1.64141 -7.1302,4.4123 -9.56766,4.91872 -1.46053,0.30345 -1.46237,0.30152 -1.46237,-1.53176 0,-1.00958 -0.12598,-1.8356 -0.27996,-1.8356 -0.43017,0 -6.0195,4.61448 -6.0195,4.96962 0,0.17209 0.89284,0.41352 1.98408,0.53651 2.83268,0.31929 6.00733,1.97927 6.83084,3.57175 0.67551,1.30631 0.65609,1.36936 -0.86288,2.80194 -2.48516,2.3438 -5.61884,3.04764 -14.47648,3.25146 -4.20713,0.0968 -9.78356,0.22646 -12.39206,0.28812 l -4.74272,0.1121 z m 11.9421,-0.85888 c 0,-0.48745 -0.49995,-0.67494 -1.79984,-0.67494 -1.29989,0 -1.79985,0.18749 -1.79985,0.67494 0,0.48746 0.49996,0.67495 1.79985,0.67495 1.29989,0 1.79984,-0.18749 1.79984,-0.67495 z m 17.4861,-21.58787 c 0.77675,-1.85044 1.41227,-3.53119 1.41227,-3.73501 0,-0.50355 -3.88741,-2.36199 -4.22809,-2.0213 -0.37153,0.37153 -0.34548,8.44685 0.0284,8.82078 0.79293,0.79293 1.48976,0.0268 2.78737,-3.06447 z m 9.51157,-26.332995 c 0,-1.484872 -0.15186,-2.698759 -0.33747,-2.697531 -0.18561,0.0014 -0.94491,0.500154 -1.68735,1.108718 l -1.34988,1.106486 1.51051,0.0162 c 1.25927,0.0135 1.4566,0.147155 1.18634,0.803612 -0.75962,1.84516 -0.77047,2.36228 -0.0496,2.36228 0.5891,0 0.72742,-0.51338 0.72742,-2.699764 z m -3.3269,-35.645365 c -0.46629,-2.33148 -1.17271,-2.597444 -1.17271,-0.441524 0,1.444491 0.17231,1.889837 0.73119,1.889837 0.58349,0 0.67268,-0.292547 0.44152,-1.448313 z"
       id="path505" />
    <path
       style="opacity:0.9;fill:#d6a206;stroke:#0000ff;stroke-width:0.017478;stroke-linecap:round;stroke-linejoin:bevel"
       d="m 99.666408,150.27571 c -10.813973,-0.26186 -12.185083,-0.3831 -14.72891,-1.30244 -3.314819,-1.19798 -5.337639,-3.19372 -4.611762,-4.55003 1.059225,-1.97918 4.986568,-4.01524 7.821315,-4.05482 l 1.39523,-0.0195 -2.474787,-2.25028 c -1.361133,-1.23765 -2.849135,-2.46161 -3.306673,-2.71991 -0.752684,-0.42492 -0.80283,-0.33734 -0.5267,0.91987 l 0.305187,1.38951 h -2.268679 c -5.135648,0 -12.022182,-4.3482 -11.02054,-6.95844 0.415669,-1.08322 2.484658,-1.9878 5.30464,-2.31923 2.747386,-0.3229 2.733366,-0.30656 2.019562,-2.35418 -0.476432,-1.36669 -0.585411,-1.41702 -3.06806,-1.41702 -7.33104,0 -13.0385,-4.55408 -13.07385,-10.43183 l -0.01268,-2.10754 4.588022,1.54509 c 2.523413,0.8498 4.790441,1.54509 5.037841,1.54509 0.817495,0 -2.617366,-3.21102 -4.438075,-4.14886 -0.982635,-0.50616 -3.035797,-1.02055 -4.56258,-1.14311 l -2.77597,-0.22282 -0.26955,-1.62973 c -1.037001,-6.26979 0.58354,-8.492546 5.87191,-8.053996 l 2.547132,0.211226 -1.761972,-1.553091 C 60.272126,93.903647 58.276567,91.636886 57.3851,89.254225 56.20873,86.110094 56.154002,83.98957 57.257564,84.312589 c 0.433088,0.126767 2.660396,0.369013 4.949573,0.53832 3.559703,0.263281 4.162141,0.208804 4.162141,-0.376366 0,-0.376307 -0.467868,-0.801628 -1.039707,-0.945148 -1.900545,-0.477008 -4.675183,-2.873731 -5.624281,-4.85824 -0.513656,-1.074021 -1.072887,-3.218285 -1.242736,-4.765026 l -0.308817,-2.812258 h 2.982868 c 1.640577,0 2.982867,-0.1265 2.982867,-0.28111 0,-0.154611 -0.821815,-2.514485 -1.826258,-5.244165 -1.337527,-3.634877 -1.681894,-5.052275 -1.286812,-5.29645 0.296696,-0.183368 2.048325,-0.474789 3.892509,-0.647603 3.15757,-0.295889 3.336919,-0.37077 3.076169,-1.284349 -1.786787,-6.260284 -0.785255,-9.432591 3.175474,-10.058176 0.958739,-0.15143 1.869095,-0.467116 2.023013,-0.701524 0.153918,-0.234408 0.650437,-2.647744 1.103375,-5.362967 l 0.823524,-4.93677 1.596392,0.288713 c 0.878016,0.158793 2.026726,0.391744 2.552689,0.517669 0.895294,0.214349 0.975473,0.0043 1.256912,-3.29294 0.165339,-1.937042 0.412244,-4.092755 0.548679,-4.790473 0.235762,-1.205674 0.289591,-1.230995 1.085567,-0.510648 0.786959,0.712188 1.547511,0.671569 12.602016,-0.673047 6.470479,-0.787038 11.895589,-1.299895 12.055809,-1.139684 0.44744,0.44744 -3.56498,3.725576 -5.26966,4.305292 -0.88012,0.299306 -2.4298,0.392556 -3.707341,0.223084 -2.127738,-0.282254 -2.31887,-0.20797 -6.228048,2.420555 l -4.032944,2.711747 0.209482,-2.359419 0.209482,-2.359418 -1.127754,3.115423 c -0.620264,1.713483 -1.027643,3.215534 -0.905286,3.33789 0.122356,0.122357 0.712107,-0.03958 1.310556,-0.359861 1.77343,-0.94911 6.140371,-0.416191 8.299826,1.012869 1.001723,0.662908 2.054929,1.641802 2.340459,2.175319 0.510791,0.954422 0.476708,0.965626 -2.118094,0.696296 -1.45048,-0.150554 -4.965787,-0.405705 -7.811791,-0.567001 l -5.174554,-0.293266 -1.509992,2.105468 c -0.830496,1.158008 -1.437944,2.173143 -1.349884,2.255856 0.137513,0.129164 12.076091,2.044668 12.743603,2.044668 0.13222,0 0.2404,0.377642 0.2404,0.839203 0,0.763835 -0.555647,0.86595 -6.186967,1.13702 -3.402831,0.1638 -7.246814,0.416539 -8.542184,0.561643 -2.249159,0.251944 -2.375686,0.337513 -2.809748,1.900218 -0.748351,2.6942 -0.834005,2.638491 4.602514,2.99343 2.784135,0.181771 5.43404,0.467996 5.888679,0.636057 0.646254,0.238893 -0.358189,1.085657 -4.603488,3.880828 -2.986558,1.966395 -5.43398,3.697835 -5.438718,3.847646 -0.0047,0.14981 1.661867,0.629033 3.703566,1.064937 4.96674,1.060405 5.090793,1.143526 3.922779,2.628414 -1.605855,2.041514 -4.637669,3.548924 -6.820824,3.391295 -1.812982,-0.130901 -1.932478,-0.06308 -2.329788,1.322255 -0.230334,0.803127 -0.302459,1.576565 -0.160277,1.718744 0.142182,0.142183 1.908763,0.626377 3.925736,1.075983 2.016973,0.449606 3.762563,0.912809 3.879089,1.029336 0.116526,0.116526 -1.718263,1.9068 -4.077309,3.978386 -2.359045,2.071585 -4.291922,4.015769 -4.295283,4.320401 -0.0034,0.304633 0.550718,0.677795 1.231284,0.829252 2.354143,0.523903 2.743095,0.682753 3.900056,1.592822 2.138793,1.682374 1.250521,3.150345 -2.265749,3.744415 -1.593285,0.269185 -1.939142,0.555959 -2.794954,2.317476 -0.537168,1.105654 -0.976669,2.076738 -0.976669,2.15796 0,0.08123 2.22683,0.519147 4.948511,0.973163 2.721681,0.454015 5.168133,0.961216 5.43656,1.127116 0.314396,0.194307 0.375717,1.050718 0.172342,2.406919 l -0.315708,2.105292 -5.683304,3.35026 c -3.125817,1.84265 -5.885786,3.42096 -6.133265,3.50736 -0.267947,0.0935 -0.02993,1.46149 0.5884,3.38173 0.784322,2.43573 1.238422,3.22466 1.85609,3.22466 0.531818,0 0.904663,-0.43264 1.066368,-1.23739 0.677639,-3.37239 4.914992,-6.73974 7.738172,-6.1494 2.903059,0.60704 4.978078,3.92008 4.644702,7.41586 l -0.168871,1.77077 h 2.985166 2.985166 l 0.447172,3.71218 c 0.245945,2.0417 0.402838,3.76969 0.348651,3.83996 -0.05419,0.0703 -1.06343,-0.0885 -2.242761,-0.35276 -1.179332,-0.26429 -2.269233,-0.35579 -2.422004,-0.20332 -0.15277,0.15246 -0.349257,2.10236 -0.436636,4.33311 -0.17078,4.35988 0.372406,7.12681 1.751468,8.92178 l 0.86218,1.12221 0.01001,-2.72391 c 0.01772,-4.82564 2.783328,-8.7501 6.166277,-8.7501 1.631454,0 2.953079,0.9188 4.182099,2.90738 l 0.96299,1.55816 -1.44203,1.28845 c -1.287474,1.15036 -1.525786,1.76705 -2.223564,5.75404 -0.429848,2.45608 -0.705123,4.54872 -0.611724,4.65032 0.0934,0.1016 0.541348,-0.15151 0.995439,-0.56245 1.022889,-0.9257 1.429699,-0.94626 1.429699,-0.0722 0,0.81386 1.63087,0.90785 1.95181,0.11249 0.12482,-0.30935 0.24335,-0.0562 0.2634,0.56245 0.0331,1.0212 0.5342,1.30504 5.43506,3.07867 2.96923,1.07457 5.39861,2.02318 5.39861,2.10802 0,0.80491 -1.00105,2.44409 -1.45124,2.37638 -0.31547,-0.0475 -5.93938,-0.21622 -12.497559,-0.37502 z M 81.374822,126.77657 c 0.141338,-0.8043 0.396258,-2.76103 0.56649,-4.34827 0.265597,-2.47644 0.212483,-2.84867 -0.374355,-2.62347 -0.376126,0.14433 -1.620924,0.40294 -2.766218,0.57469 -1.145294,0.17174 -2.082353,0.37373 -2.082353,0.44885 0,0.0751 0.421441,1.11517 0.936536,2.3112 0.515094,1.19605 1.213451,2.8327 1.551904,3.637 0.338453,0.80431 0.90689,1.46237 1.263194,1.46237 0.378192,0 0.754782,-0.60865 0.904802,-1.46237 z M 71.22944,98.674388 c 0.525317,-1.906747 0.882268,-3.539665 0.793226,-3.628708 -0.223785,-0.223784 -3.120708,0.34314 -3.754278,0.73471 -0.387327,0.239379 -0.391546,1.078683 -0.01679,3.34026 0.387693,2.33965 0.672088,3.02054 1.261621,3.02054 0.566327,0 1.005527,-0.88719 1.716222,-3.466802 z m 0.975651,-35.792309 c -0.01499,-2.588521 -0.571569,-2.253173 -1.1202,0.674942 -0.259034,1.382502 -0.185165,1.687354 0.408865,1.687354 0.576388,0 0.722213,-0.484273 0.711335,-2.362296 z m 7.911608,-18.885785 c 0.481975,-1.292342 0.943813,-2.507237 1.026306,-2.699768 0.08249,-0.192531 -0.451344,-0.350056 -1.186303,-0.350056 -1.244263,0 -1.357796,0.143408 -1.648558,2.082353 -0.171748,1.145294 -0.418884,2.360189 -0.549193,2.699767 -0.14981,0.3904 0.07898,0.617415 0.622252,0.617415 0.624033,0 1.099011,-0.643079 1.735496,-2.349711 z"
       id="path507" />
  </g>
</svg>
